# xmcd
#
# Track frame offsets:
#	150
#	18672
#	40489
#	57997
#	80714
#	108704
#	127281
#	145922
#	163689
#	183580
#	203161
#	223469
#	239877
#	258648
#	282080
#	301963
#
# Disc length: 4320 seconds
#
# Revision: 0
# Processed by: cddbd v1.5.2PL0 Copyright (c) Steve Scherf et al.
# Submitted via: dBpowerAMP V4.0
#
DISCID=0c10de10
DTITLE=Various Artist - Greatest Salsa Classics of Colombia
DYEAR=1999
DGENRE=Salsa
TTITLE0=La Sabrosura-Tu amigo o tu amante
TTITLE1=Los Titanes-Basto una mirada
TTITLE2=Fruko y sus Tesos-Yo soy el punto cubano
TTITLE3=Fruko y sus Tesos-Los charcos
TTITLE4=The Latin Brothers-Patrona de los reclusos
TTITLE5=Fruko y sus Tesos-Manyoma
TTITLE6=Joe Arroyo y la Verdad-Echao pa'lante
TTITLE7=Los Nemus del Pacifico-Lindas y bellas
TTITLE8=Joe Arroyo y la Verdad-La noche
TTITLE9=Los Titanes-Zodiaco
TTITLE10=Fruko y sus Tesos-La vi partir
TTITLE11=Joe Arroyo y la Verdad-Fuego en mi mente
TTITLE12=La Sabrosura-Buscalo a el
TTITLE13=Joe Arroyo y la Verdad-En barranquilla me quedo
TTITLE14=The Latin Brothers-Papi papa
TTITLE15=Los Titanes-Noche a noche
EXTD=
EXTT0=
EXTT1=
EXTT2=
EXTT3=
EXTT4=
EXTT5=
EXTT6=
EXTT7=
EXTT8=
EXTT9=
EXTT10=
EXTT11=
EXTT12=
EXTT13=
EXTT14=
EXTT15=
PLAYORDER=
